<?xml version="1.0" encoding="UTF-8" standalone="no"?>
<svg width="128" height="128" viewBox="0 0 128 128" xmlns="http://www.w3.org/2000/svg">
    <defs>
        <linearGradient id="grad" x1="0%" y1="0%" x2="100%" y2="100%">
            <stop offset="0%" style="stop-color:#2C5282;stop-opacity:1" />
            <stop offset="100%" style="stop-color:#4299E1;stop-opacity:1" />
        </linearGradient>
    </defs>
    
    <!-- Fond avec gradient -->
    <rect x="8" y="8" width="112" height="112" rx="16" 
          fill="url(#grad)" stroke="#2C5282" stroke-width="2"/>
    
    <!-- Symbole d'engrenage -->
    <path d="M64 40c-13.255 0-24 10.745-24 24s10.745 24 24 24 24-10.745 24-24-10.745-24-24-24zm0 40c-8.837 0-16-7.163-16-16s7.163-16 16-16 16 7.163 16 16-7.163 16-16 16z" 
          fill="#ffffff"/>
    
    <!-- Points autour de l'engrenage -->
    <circle cx="64" cy="28" r="4" fill="#ffffff"/>
    <circle cx="64" cy="100" r="4" fill="#ffffff"/>
    <circle cx="28" cy="64" r="4" fill="#ffffff"/>
    <circle cx="100" cy="64" r="4" fill="#ffffff"/>
    
    <!-- Lignes de connexion -->
    <line x1="64" y1="32" x2="64" y2="40" stroke="#ffffff" stroke-width="2"/>
    <line x1="64" y1="88" x2="64" y2="96" stroke="#ffffff" stroke-width="2"/>
    <line x1="32" y1="64" x2="40" y2="64" stroke="#ffffff" stroke-width="2"/>
    <line x1="88" y1="64" x2="96" y2="64" stroke="#ffffff" stroke-width="2"/>
</svg>
